<?xml version="1.0" encoding="UTF-8" standalone="no"?>
<!-- Created with Inkscape (http://www.inkscape.org/) -->

<svg
   width="40mm"
   height="40mm"
   viewBox="0 0 40 40"
   version="1.1"
   id="svg5"
   xml:space="preserve"
   inkscape:version="1.2.1 (9c6d41e410, 2022-07-14)"
   sodipodi:docname="icon.svg"
   xmlns:inkscape="http://www.inkscape.org/namespaces/inkscape"
   xmlns:sodipodi="http://sodipodi.sourceforge.net/DTD/sodipodi-0.dtd"
   xmlns="http://www.w3.org/2000/svg"
   xmlns:svg="http://www.w3.org/2000/svg"><sodipodi:namedview
     id="namedview7"
     pagecolor="#ffffff"
     bordercolor="#000000"
     borderopacity="0.25"
     inkscape:showpageshadow="2"
     inkscape:pageopacity="0.0"
     inkscape:pagecheckerboard="0"
     inkscape:deskcolor="#d1d1d1"
     inkscape:document-units="mm"
     showgrid="false"
     inkscape:zoom="2.1946698"
     inkscape:cx="156.51557"
     inkscape:cy="131.91051"
     inkscape:window-width="957"
     inkscape:window-height="1046"
     inkscape:window-x="963"
     inkscape:window-y="0"
     inkscape:window-maximized="1"
     inkscape:current-layer="layer1"><inkscape:grid
       type="xygrid"
       id="grid380" /></sodipodi:namedview><defs
     id="defs2" /><g
     inkscape:label="Layer 1"
     inkscape:groupmode="layer"
     id="layer1"><g
       fill="none"
       fill-rule="evenodd"
       id="g208"
       transform="matrix(2.393551,0,0,2.393551,-0.39355104,-2.2986091)"><path
         fill="#9aa7b0"
         fill-opacity="0.8"
         d="M 7.98462,4 6.69629,2.71143 C 6.2215852,2.2856345 5.6157462,2.0346507 4.979,2 H 1.05127 C 1.037675,1.9999973 1.024636,2.0054 1.015021,2.015007 1.0054058,2.0246179 1.0000027,2.037655 1,2.05125 V 13 H 9 V 8 h 6 V 4 Z"
         id="path198" /><rect
         width="6"
         height="1"
         x="10"
         y="13"
         fill="#d9a343"
         id="rect200" /><rect
         width="6"
         height="1"
         x="10"
         y="15"
         fill="#d9a343"
         id="rect202" /><rect
         width="6"
         height="1"
         x="10"
         y="11"
         fill="#d9a343"
         id="rect204" /><rect
         width="6"
         height="1"
         x="10"
         y="9"
         fill="#d9a343"
         id="rect206" /></g><g
       id="g453"
       transform="matrix(0.06893157,0,0,0.06893157,13.478171,14.080006)"><g
         id="g394">
	<path
   d="m 294.077,251.199 -59.104,-59.106 42.166,-24.357 c 3.295,-1.904 5.213,-5.521 4.938,-9.316 -0.273,-3.796 -2.69,-7.101 -6.225,-8.51 L 87.82,74.905 c -3.687,-1.472 -7.895,-0.605 -10.702,2.201 -2.807,2.808 -3.674,7.016 -2.203,10.702 l 74.994,188.053 c 1.41,3.534 4.715,5.952 8.511,6.226 3.796,0.276 7.413,-1.643 9.316,-4.939 l 24.353,-42.166 59.102,59.107 c 1.862,1.864 4.389,2.91 7.023,2.91 2.634,0 5.16,-1.046 7.022,-2.91 l 28.841,-28.844 c 3.879,-3.879 3.879,-10.167 0,-14.046 z m -35.863,21.823 -61.229,-61.235 c -1.876,-1.876 -4.407,-2.91 -7.023,-2.91 -0.43,0 -0.864,0.028 -1.295,0.085 -3.063,0.402 -5.763,2.206 -7.306,4.881 l -20.584,35.642 -58.849,-147.564 147.549,58.857 -35.645,20.588 c -2.674,1.543 -4.478,4.243 -4.88,7.306 -0.403,3.06 0.64,6.134 2.824,8.318 l 61.232,61.235 z"
   id="path382" />
	<path
   d="m 43.611,29.552 c -3.88,-3.876 -10.166,-3.876 -14.048,0 -3.879,3.88 -3.879,10.168 0,14.048 l 22.069,22.069 c 1.939,1.938 4.482,2.909 7.024,2.909 2.541,0 5.082,-0.971 7.023,-2.909 3.878,-3.879 3.878,-10.168 0,-14.047 z"
   id="path384" />
	<path
   d="m 51.089,98.215 c 0,-5.485 -4.448,-9.931 -9.933,-9.931 H 9.946 c -5.484,0 -9.933,4.445 -9.933,9.931 0,5.484 4.448,9.932 9.933,9.932 h 31.21 c 5.485,-0.001 9.933,-4.448 9.933,-9.932 z"
   id="path386" />
	<path
   d="m 47.063,128.87 -22.071,22.071 c -3.88,3.877 -3.88,10.166 0,14.045 1.939,1.939 4.479,2.909 7.023,2.909 2.541,0 5.082,-0.97 7.021,-2.909 l 22.072,-22.07 c 3.879,-3.878 3.879,-10.168 0,-14.046 -3.877,-3.878 -10.165,-3.878 -14.045,0 z"
   id="path388" />
	<path
   d="m 98.222,51.078 c 5.484,0 9.932,-4.448 9.932,-9.933 V 9.932 C 108.154,4.448 103.707,0 98.222,0 92.737,0 88.291,4.447 88.291,9.932 v 31.214 c 0,5.484 4.445,9.932 9.931,9.932 z"
   id="path390" />
	<path
   d="m 135.893,64.005 c 2.544,0 5.085,-0.968 7.024,-2.908 l 22.068,-22.069 c 3.88,-3.879 3.88,-10.168 0,-14.046 -3.878,-3.879 -10.169,-3.879 -14.045,0 l -22.069,22.069 c -3.879,3.878 -3.879,10.168 0,14.046 1.939,1.94 4.481,2.908 7.022,2.908 z"
   id="path392" />
</g><g
         id="g396">
</g><g
         id="g398">
</g><g
         id="g400">
</g><g
         id="g402">
</g><g
         id="g404">
</g><g
         id="g406">
</g><g
         id="g408">
</g><g
         id="g410">
</g><g
         id="g412">
</g><g
         id="g414">
</g><g
         id="g416">
</g><g
         id="g418">
</g><g
         id="g420">
</g><g
         id="g422">
</g><g
         id="g424">
</g></g></g></svg>
